<?xml version="1.0" encoding="UTF-8"?>
<svg width="1559px" height="502px" viewBox="0 0 1559 502" version="1.1" xmlns="http://www.w3.org/2000/svg" xmlns:xlink="http://www.w3.org/1999/xlink">
    <!-- Generator: Sketch 53.2 (72643) - https://sketchapp.com -->
    <title>Group 2</title>
    <desc>Created with Sketch.</desc>
    <g id="Page-1" stroke="none" stroke-width="1" fill="none" fill-rule="evenodd">
        <g id="Desktop-HD-Copy" transform="translate(-1083.000000, -969.000000)">
            <g id="Group-2" transform="translate(1082.980396, 912.000000)">
                <rect id="Rectangle-Copy-15" fill="#5086E7" transform="translate(1309.019604, 309.000000) scale(1, -1) rotate(-315.000000) translate(-1309.019604, -309.000000) " x="1083.0196" y="99" width="452" height="420" rx="141.75"></rect>
                <path d="M1170.89335,353.0995 L1171.3186,350.12275 C1176.42163,320.922104 1193.43146,300.793805 1222.3486,289.73725 C1228.30213,288.036241 1228.58563,285.768264 1223.1991,282.93325 C1213.84356,277.546723 1206.96875,269.750551 1202.57448,259.5445 C1198.18021,249.338449 1196.97534,237.856814 1198.95985,225.09925 L1199.3851,222.1225 C1204.20463,194.05586 1216.25326,174.06931 1235.53135,162.16225 C1254.80945,150.25519 1281.74168,144.30175 1316.32885,144.30175 L1333.33885,144.30175 C1368.77653,144.30175 1394.92914,151.601802 1411.79748,166.202125 C1428.66581,180.802448 1434.26488,202.13561 1428.59485,230.20225 L1428.1696,233.179 C1423.63358,256.142615 1409.17523,273.010696 1384.7941,283.78375 C1379.12408,286.051761 1378.55708,288.319739 1383.0931,290.58775 C1407.47423,304.195818 1417.11313,326.0251 1412.0101,356.07625 L1411.58485,359.9035 C1406.76533,388.820645 1394.7167,409.586812 1375.4386,422.202625 C1356.16051,434.818438 1328.94478,441.12625 1293.7906,441.12625 L1266.5746,441.12625 C1231.13693,441.12625 1205.12606,433.542701 1188.54123,418.375375 C1171.9564,403.208049 1166.07383,381.449642 1170.89335,353.0995 Z M1369.91035,233.60425 L1370.3356,230.20225 C1372.32011,218.862193 1370.12301,210.428153 1363.74423,204.899875 C1357.36545,199.371597 1344.67895,196.6075 1325.68435,196.6075 L1312.92685,196.6075 C1293.64876,196.6075 1279.89914,199.229849 1271.6776,204.474625 C1263.45606,209.719401 1258.35311,218.29519 1256.3686,230.20225 L1255.5181,233.60425 C1253.8171,244.093802 1256.15595,252.102597 1262.53473,257.630875 C1268.91351,263.159153 1280.60777,265.92325 1297.61785,265.92325 L1316.7541,265.92325 C1347.93926,265.92325 1365.65783,255.150358 1369.91035,233.60425 Z M1295.4916,388.8205 C1314.7697,388.8205 1328.94456,385.914654 1338.0166,380.102875 C1347.08865,374.291096 1352.61684,365.148312 1354.60135,352.67425 L1355.45185,347.57125 C1357.43636,336.231193 1354.67227,327.513655 1347.15948,321.418375 C1339.64669,315.323095 1326.81844,312.2755 1308.67435,312.2755 L1289.11285,312.2755 C1253.95868,312.2755 1234.25562,323.898884 1230.0031,347.146 L1229.1526,352.249 C1226.88459,364.723062 1229.22344,373.93672 1236.16923,379.89025 C1243.11501,385.84378 1256.08501,388.8205 1275.0796,388.8205 L1295.4916,388.8205 Z" id="8" fill="#FFFFFF" fill-rule="nonzero"></path>
                <path d="M27.3834036,410 L11.9988036,410 C7.56358146,410 4.30651403,408.683313 2.22750364,406.0499 C0.148493242,403.416487 -0.475200521,399.882222 0.356403637,395.447 L45.6786036,136.8194 C47.341812,127.671754 52.7471579,123.098 61.8948036,123.098 L77.2794036,123.098 C81.7146258,123.098 85.0409925,124.483986 87.2586036,127.256 C89.4762147,130.028014 90.1692078,133.631578 89.3376036,138.0668 L44.0154036,396.6944 C41.7977925,405.564844 36.253848,410 27.3834036,410 Z M91.0701031,410 C86.9120823,410 83.7936135,408.683313 81.7146031,406.0499 C79.6355927,403.416487 78.8733004,399.882222 79.4277031,395.447 L107.286303,237.0272 C109.503914,223.998735 113.176777,214.574029 118.305003,208.7528 C123.433229,202.931571 131.679846,198.912211 143.045103,196.6946 C163.003603,192.536579 182.961803,190.4576 202.920303,190.4576 C236.738872,190.4576 260.162038,197.318231 273.190503,211.0397 C286.218968,224.761169 289.683934,249.501021 283.585503,285.26 L264.458703,396.6944 C262.795495,405.564844 257.25155,410 247.826703,410 L233.689503,410 C229.254281,410 225.927914,408.683313 223.710303,406.0499 C221.492692,403.416487 220.799699,399.882222 221.631303,395.447 L240.342303,290.2496 C244.500324,266.410281 243.738032,250.124944 238.055403,241.3931 C232.372775,232.661256 219.968199,228.2954 200.841303,228.2954 C190.862053,228.2954 178.665375,229.542788 164.250903,232.0376 C158.984077,233.146406 155.172615,235.017487 152.816403,237.6509 C150.460191,240.284313 148.727709,244.511571 147.618903,250.3328 L121.839303,396.6944 C120.176095,405.564844 114.770749,410 105.623103,410 L91.0701031,410 Z M380.120403,412.079 L378.041403,412.079 C351.707271,412.079 333.75875,405.010471 324.195303,390.8732 C314.631855,376.735929 313.176569,351.233784 319.829403,314.366 L333.550803,238.2746 C334.382407,233.007774 332.303428,230.3744 327.313803,230.3744 L319.413603,230.3744 C314.97838,230.3744 311.721313,229.057713 309.642303,226.4243 C307.563292,223.790887 306.939598,220.256622 307.771203,215.8214 L309.434403,205.8422 C311.097611,196.971756 316.502957,192.5366 325.650603,192.5366 L333.550803,192.5366 C338.817629,192.5366 342.005397,190.041825 343.114203,185.0522 L348.103803,157.1936 C349.767011,148.045954 355.172357,143.4722 364.320003,143.4722 L378.873003,143.4722 C383.308225,143.4722 386.565292,144.858186 388.644303,147.6302 C390.723313,150.402214 391.347007,154.005778 390.515403,158.441 L385.941603,185.0522 C385.3872,188.101415 385.595098,190.111095 386.565303,191.0813 C387.535507,192.051505 389.406589,192.5366 392.178603,192.5366 L445.816803,192.5366 C450.252025,192.5366 453.578392,193.922586 455.796003,196.6946 C458.013614,199.466614 458.706607,203.070178 457.875003,207.5054 L456.211803,217.0688 C454.548594,225.939244 449.143248,230.3744 439.995603,230.3744 L385.525803,230.3744 C380.536178,230.3744 377.487008,232.591978 376.378203,237.0272 L361.825203,318.9398 C357.944383,340.007105 358.013683,354.49066 362.033103,362.3909 C366.052523,370.29114 374.160542,374.2412 386.357403,374.2412 L388.020603,374.2412 C396.059443,374.2412 403.613067,373.340309 410.681703,371.5385 C417.750338,369.736691 422.116194,368.8358 423.779403,368.8358 C432.372646,368.8358 435.837611,373.548153 434.174403,382.973 L432.511203,391.7048 C431.402397,400.020842 425.304058,405.703385 414.216003,408.7526 C405.345558,410.970211 393.980472,412.079 380.120403,412.079 Z M535.698902,412.079 C499.939923,412.079 476.031662,403.970981 463.973402,387.7547 C451.915142,371.538419 449.212469,344.165193 455.865302,305.6342 L457.528502,294.8234 C464.735738,254.351998 476.239423,226.840173 492.039902,212.2871 C507.840381,197.734027 533.342526,190.4576 568.547102,190.4576 L573.120902,190.4576 C608.048277,190.4576 632.025837,196.902436 645.054302,209.7923 C658.082767,222.682164 661.963528,244.511446 656.696702,275.2808 L654.201902,289.0022 C652.538694,298.704249 648.93513,305.56488 643.391102,309.5843 C637.847074,313.60372 629.946953,315.6134 619.690502,315.6134 L504.098102,315.6134 C499.385679,315.6134 496.613706,318.108175 495.782102,323.0978 C492.455686,341.947494 493.910971,355.39156 500.148002,363.4304 C506.385033,371.46924 519.898398,375.4886 540.688502,375.4886 L546.093902,375.4886 C561.339978,375.4886 576.863023,373.548219 592.663502,369.6674 C608.463981,365.786581 617.195694,363.8462 618.858902,363.8462 C623.294124,363.8462 626.551192,365.232186 628.630202,368.0042 C630.709213,370.776214 631.332906,374.379778 630.501302,378.815 L628.838102,387.131 C628.006498,392.120625 626.135417,395.793488 623.224802,398.1497 C620.314188,400.505912 616.08693,402.515592 610.542902,404.1788 C588.921194,409.445626 565.913824,412.079 541.520102,412.079 L535.698902,412.079 Z M503.682302,278.1914 C502.850698,282.903824 504.791079,285.26 509.503502,285.26 L605.969102,285.26 C610.681526,285.26 613.453498,282.903824 614.285102,278.1914 C618.165922,256.015289 617.403629,241.531734 611.998202,234.7403 C606.592775,227.948866 592.802213,224.5532 570.626102,224.5532 L564.804902,224.5532 C545.123604,224.5532 530.917246,228.295363 522.185402,235.7798 C513.453558,243.264237 507.28592,257.401296 503.682302,278.1914 Z M746.578802,478.607 C718.858663,478.607 695.435497,475.696429 676.308602,469.8752 C670.764574,468.211992 666.953112,465.994414 664.874102,463.2224 C662.795091,460.450386 662.309996,456.431026 663.418802,451.1642 L665.082002,442.4324 C666.468009,433.839157 671.457559,429.5426 680.050802,429.5426 C681.159607,429.5426 689.129027,431.621579 703.959302,435.7796 C718.789576,439.937621 734.38192,442.0166 750.736802,442.0166 L752.815802,442.0166 C772.774301,442.0166 787.188557,439.383226 796.059002,434.1164 C804.929446,428.849574 811.027785,419.009072 814.354202,404.5946 C815.185806,400.990982 815.047207,398.496207 813.938402,397.1102 C812.829596,395.724193 810.47342,395.308397 806.869802,395.8628 C791.346524,398.357612 777.625261,399.605 765.705602,399.605 L756.973802,399.605 C722.046427,399.605 698.138166,392.051376 685.248302,376.9439 C672.358437,361.836424 669.10137,335.710586 675.477002,298.5656 L677.140202,289.0022 C684.070236,250.748409 695.573921,224.761169 711.651602,211.0397 C727.729282,197.318231 753.092828,190.4576 787.743002,190.4576 L796.059002,190.4576 C832.926786,190.4576 857.874536,195.031354 870.903002,204.179 C883.931467,213.326646 888.782418,227.740902 885.456002,247.4222 L860.508002,390.4574 C854.686773,424.275969 843.737482,447.421938 827.659802,459.896 C811.582121,472.370062 786.079976,478.607 751.152602,478.607 L746.578802,478.607 Z M828.491402,231.6218 C820.452561,229.404189 808.810278,228.2954 793.564202,228.2954 L786.495602,228.2954 C763.487887,228.2954 747.618345,232.522658 738.886502,240.9773 C730.154658,249.431942 723.571224,266.964667 719.136002,293.576 L717.888602,298.9814 C713.730581,324.483928 714.631472,341.323659 720.591302,349.5011 C726.551131,357.678541 741.311884,361.7672 764.874002,361.7672 L772.358402,361.7672 C788.436082,361.7672 801.464352,360.381214 811.443602,357.6092 C819.759643,355.66879 824.610595,350.402043 825.996602,341.8088 L841.381202,256.5698 C842.767209,248.53096 842.62861,242.848417 840.965402,239.522 C839.302193,236.195583 835.144235,233.56221 828.491402,231.6218 Z M915.462901,410 L900.494101,410 C896.613282,410 893.633412,408.752612 891.554401,406.2578 C889.475391,403.762988 888.713098,400.575219 889.267501,396.6944 L916.710301,239.1062 C919.482315,223.860124 923.570974,213.395928 928.976401,207.7133 C934.381828,202.030672 943.737235,197.664815 957.042901,194.6156 C969.516964,191.843586 982.961029,190.4576 997.375501,190.4576 L999.454501,190.4576 C1016.91819,190.4576 1031.19385,191.704988 1042.2819,194.1998 C1053.09276,196.694612 1057.66651,202.515754 1056.0033,211.6634 L1054.3401,221.6426 C1052.95409,229.958642 1047.96454,234.1166 1039.3713,234.1166 C1037.70809,234.1166 1032.57994,233.14641 1023.9867,231.206 C1015.39346,229.26559 1006.38455,228.2954 996.959701,228.2954 L995.712301,228.2954 C987.673461,228.2954 980.050537,229.126992 972.843301,230.7902 C967.576475,231.899006 963.972911,233.770087 962.032501,236.4035 C960.092091,239.036913 958.706105,243.125572 957.874501,248.6696 L931.679101,396.6944 C930.015893,405.564844 924.610547,410 915.462901,410 Z" id="Integr" fill="#4A4A4A" fill-rule="nonzero"></path>
                <circle id="Oval-Copy-21" fill="#5086E7" cx="1519.5196" cy="88.5" r="31.5"></circle>
            </g>
        </g>
    </g>
</svg>